<mxfile host="app.diagrams.net" modified="2023-11-28T13:05:49.991Z" agent="Mozilla/5.0 (Windows NT 10.0; Win64; x64) AppleWebKit/537.36 (KHTML, like Gecko) Chrome/119.0.0.0 Safari/537.36" etag="N6gDuWZi6NgcSv0dMRUL" version="22.1.4" type="google">
  <diagram id="C5RBs43oDa-KdzZeNtuy" name="Page-1">
    <mxGraphModel grid="1" page="1" gridSize="10" guides="1" tooltips="1" connect="1" arrows="1" fold="1" pageScale="1" pageWidth="827" pageHeight="1169" math="0" shadow="0">
      <root>
        <mxCell id="WIyWlLk6GJQsqaUBKTNV-0" />
        <mxCell id="WIyWlLk6GJQsqaUBKTNV-1" parent="WIyWlLk6GJQsqaUBKTNV-0" />
        <mxCell id="jJjrp3uZuNoCj7Tn6k98-1" value="CLIENT 1" style="rounded=1;whiteSpace=wrap;html=1;labelBackgroundColor=none;" vertex="1" parent="WIyWlLk6GJQsqaUBKTNV-1">
          <mxGeometry x="120" y="60" width="120" height="60" as="geometry" />
        </mxCell>
        <mxCell id="jJjrp3uZuNoCj7Tn6k98-2" value="CLIENT 2" style="rounded=1;whiteSpace=wrap;html=1;labelBackgroundColor=none;" vertex="1" parent="WIyWlLk6GJQsqaUBKTNV-1">
          <mxGeometry x="590" y="60" width="120" height="60" as="geometry" />
        </mxCell>
        <mxCell id="jJjrp3uZuNoCj7Tn6k98-3" value="SERVER" style="rounded=1;whiteSpace=wrap;html=1;labelBackgroundColor=none;" vertex="1" parent="WIyWlLk6GJQsqaUBKTNV-1">
          <mxGeometry x="353.5" y="60" width="120" height="60" as="geometry" />
        </mxCell>
        <mxCell id="jJjrp3uZuNoCj7Tn6k98-4" value="client 1 fatto in c++" style="rounded=1;whiteSpace=wrap;html=1;labelBackgroundColor=none;" vertex="1" parent="WIyWlLk6GJQsqaUBKTNV-1">
          <mxGeometry x="120" y="30" width="120" height="20" as="geometry" />
        </mxCell>
        <mxCell id="jJjrp3uZuNoCj7Tn6k98-5" value="client 2 fatto in c++" style="rounded=1;whiteSpace=wrap;html=1;labelBackgroundColor=none;" vertex="1" parent="WIyWlLk6GJQsqaUBKTNV-1">
          <mxGeometry x="590" y="30" width="120" height="20" as="geometry" />
        </mxCell>
        <mxCell id="jJjrp3uZuNoCj7Tn6k98-6" value="server fatto in java" style="rounded=1;whiteSpace=wrap;html=1;labelBackgroundColor=none;" vertex="1" parent="WIyWlLk6GJQsqaUBKTNV-1">
          <mxGeometry x="360" y="30" width="120" height="20" as="geometry" />
        </mxCell>
        <mxCell id="jJjrp3uZuNoCj7Tn6k98-7" value="" style="endArrow=none;html=1;rounded=1;entryX=0.5;entryY=1;entryDx=0;entryDy=0;labelBackgroundColor=none;fontColor=default;" edge="1" parent="WIyWlLk6GJQsqaUBKTNV-1" target="jJjrp3uZuNoCj7Tn6k98-1">
          <mxGeometry width="50" height="50" relative="1" as="geometry">
            <mxPoint x="180" y="1130" as="sourcePoint" />
            <mxPoint x="490" y="430" as="targetPoint" />
          </mxGeometry>
        </mxCell>
        <mxCell id="jJjrp3uZuNoCj7Tn6k98-8" value="" style="endArrow=none;html=1;rounded=1;entryX=0.5;entryY=1;entryDx=0;entryDy=0;labelBackgroundColor=none;fontColor=default;" edge="1" parent="WIyWlLk6GJQsqaUBKTNV-1" source="jJjrp3uZuNoCj7Tn6k98-19">
          <mxGeometry width="50" height="50" relative="1" as="geometry">
            <mxPoint x="412" y="840" as="sourcePoint" />
            <mxPoint x="412" y="120" as="targetPoint" />
          </mxGeometry>
        </mxCell>
        <mxCell id="jJjrp3uZuNoCj7Tn6k98-9" value="" style="endArrow=none;html=1;rounded=1;entryX=0.5;entryY=1;entryDx=0;entryDy=0;labelBackgroundColor=none;fontColor=default;" edge="1" parent="WIyWlLk6GJQsqaUBKTNV-1">
          <mxGeometry width="50" height="50" relative="1" as="geometry">
            <mxPoint x="650" y="1140" as="sourcePoint" />
            <mxPoint x="649.4100000000001" y="120" as="targetPoint" />
          </mxGeometry>
        </mxCell>
        <mxCell id="jJjrp3uZuNoCj7Tn6k98-10" value="" style="endArrow=classic;html=1;rounded=1;labelBackgroundColor=none;fontColor=default;" edge="1" parent="WIyWlLk6GJQsqaUBKTNV-1">
          <mxGeometry width="50" height="50" relative="1" as="geometry">
            <mxPoint x="180" y="160" as="sourcePoint" />
            <mxPoint x="410" y="210" as="targetPoint" />
          </mxGeometry>
        </mxCell>
        <mxCell id="jJjrp3uZuNoCj7Tn6k98-11" value="" style="endArrow=classic;html=1;rounded=1;labelBackgroundColor=none;fontColor=default;" edge="1" parent="WIyWlLk6GJQsqaUBKTNV-1">
          <mxGeometry width="50" height="50" relative="1" as="geometry">
            <mxPoint x="650" y="180" as="sourcePoint" />
            <mxPoint x="410" y="230" as="targetPoint" />
          </mxGeometry>
        </mxCell>
        <mxCell id="jJjrp3uZuNoCj7Tn6k98-13" value="il client 1 è pronto (ha inserito il nome del giocatore e aspetta l&#39;avversario)" style="rounded=1;whiteSpace=wrap;html=1;labelBackgroundColor=none;" vertex="1" parent="WIyWlLk6GJQsqaUBKTNV-1">
          <mxGeometry x="220" y="150" width="120" height="60" as="geometry" />
        </mxCell>
        <mxCell id="jJjrp3uZuNoCj7Tn6k98-14" value="il client 2 è pronto (ha inserito il nome del giocatore e aspetta l&#39;avversario)" style="rounded=1;whiteSpace=wrap;html=1;labelBackgroundColor=none;" vertex="1" parent="WIyWlLk6GJQsqaUBKTNV-1">
          <mxGeometry x="473.5" y="180" width="120" height="60" as="geometry" />
        </mxCell>
        <mxCell id="jJjrp3uZuNoCj7Tn6k98-15" value="" style="endArrow=classic;html=1;rounded=1;labelBackgroundColor=none;fontColor=default;" edge="1" parent="WIyWlLk6GJQsqaUBKTNV-1">
          <mxGeometry width="50" height="50" relative="1" as="geometry">
            <mxPoint x="410" y="260" as="sourcePoint" />
            <mxPoint x="180" y="320" as="targetPoint" />
          </mxGeometry>
        </mxCell>
        <mxCell id="jJjrp3uZuNoCj7Tn6k98-16" value="" style="endArrow=classic;html=1;rounded=1;labelBackgroundColor=none;fontColor=default;" edge="1" parent="WIyWlLk6GJQsqaUBKTNV-1">
          <mxGeometry width="50" height="50" relative="1" as="geometry">
            <mxPoint x="410" y="260" as="sourcePoint" />
            <mxPoint x="650" y="320" as="targetPoint" />
          </mxGeometry>
        </mxCell>
        <mxCell id="jJjrp3uZuNoCj7Tn6k98-17" value="il server invia ad entrambi il client la conferma di inzio partita" style="rounded=1;whiteSpace=wrap;html=1;labelBackgroundColor=none;" vertex="1" parent="WIyWlLk6GJQsqaUBKTNV-1">
          <mxGeometry x="350" y="280" width="120" height="60" as="geometry" />
        </mxCell>
        <mxCell id="jJjrp3uZuNoCj7Tn6k98-18" value="" style="endArrow=none;dashed=1;html=1;dashPattern=1 3;strokeWidth=2;rounded=1;labelBackgroundColor=none;fontColor=default;" edge="1" parent="WIyWlLk6GJQsqaUBKTNV-1" source="jJjrp3uZuNoCj7Tn6k98-19">
          <mxGeometry width="50" height="50" relative="1" as="geometry">
            <mxPoint x="10" y="400" as="sourcePoint" />
            <mxPoint x="790" y="400" as="targetPoint" />
          </mxGeometry>
        </mxCell>
        <mxCell id="jJjrp3uZuNoCj7Tn6k98-20" value="" style="endArrow=none;html=1;rounded=1;entryX=0.5;entryY=1;entryDx=0;entryDy=0;labelBackgroundColor=none;fontColor=default;" edge="1" parent="WIyWlLk6GJQsqaUBKTNV-1" target="jJjrp3uZuNoCj7Tn6k98-19">
          <mxGeometry width="50" height="50" relative="1" as="geometry">
            <mxPoint x="412" y="1140" as="sourcePoint" />
            <mxPoint x="412" y="120" as="targetPoint" />
          </mxGeometry>
        </mxCell>
        <mxCell id="jJjrp3uZuNoCj7Tn6k98-21" value="" style="endArrow=none;dashed=1;html=1;dashPattern=1 3;strokeWidth=2;rounded=1;labelBackgroundColor=none;fontColor=default;" edge="1" parent="WIyWlLk6GJQsqaUBKTNV-1" target="jJjrp3uZuNoCj7Tn6k98-19">
          <mxGeometry width="50" height="50" relative="1" as="geometry">
            <mxPoint x="10" y="400" as="sourcePoint" />
            <mxPoint x="790" y="400" as="targetPoint" />
          </mxGeometry>
        </mxCell>
        <mxCell id="jJjrp3uZuNoCj7Tn6k98-19" value="thread" style="rounded=1;whiteSpace=wrap;html=1;labelBackgroundColor=none;" vertex="1" parent="WIyWlLk6GJQsqaUBKTNV-1">
          <mxGeometry x="360" y="380" width="100" height="30" as="geometry" />
        </mxCell>
        <mxCell id="jJjrp3uZuNoCj7Tn6k98-22" value="" style="endArrow=classic;html=1;rounded=1;labelBackgroundColor=none;fontColor=default;" edge="1" parent="WIyWlLk6GJQsqaUBKTNV-1">
          <mxGeometry width="50" height="50" relative="1" as="geometry">
            <mxPoint x="180" y="440" as="sourcePoint" />
            <mxPoint x="410" y="490" as="targetPoint" />
          </mxGeometry>
        </mxCell>
        <mxCell id="jJjrp3uZuNoCj7Tn6k98-23" value="" style="endArrow=classic;html=1;rounded=1;labelBackgroundColor=none;fontColor=default;" edge="1" parent="WIyWlLk6GJQsqaUBKTNV-1">
          <mxGeometry width="50" height="50" relative="1" as="geometry">
            <mxPoint x="650" y="440" as="sourcePoint" />
            <mxPoint x="410" y="490" as="targetPoint" />
          </mxGeometry>
        </mxCell>
        <mxCell id="-Fd0-h6PGbJD_49W9dKm-0" value="" style="endArrow=none;dashed=1;html=1;dashPattern=1 3;strokeWidth=2;rounded=1;labelBackgroundColor=none;fontColor=default;" edge="1" parent="WIyWlLk6GJQsqaUBKTNV-1">
          <mxGeometry width="50" height="50" relative="1" as="geometry">
            <mxPoint x="64" y="524" as="sourcePoint" />
            <mxPoint x="414" y="520" as="targetPoint" />
          </mxGeometry>
        </mxCell>
        <mxCell id="-Fd0-h6PGbJD_49W9dKm-1" value="" style="endArrow=none;dashed=1;html=1;dashPattern=1 3;strokeWidth=2;rounded=1;labelBackgroundColor=none;fontColor=default;" edge="1" parent="WIyWlLk6GJQsqaUBKTNV-1">
          <mxGeometry width="50" height="50" relative="1" as="geometry">
            <mxPoint x="414" y="520" as="sourcePoint" />
            <mxPoint x="744" y="524" as="targetPoint" />
          </mxGeometry>
        </mxCell>
        <mxCell id="-Fd0-h6PGbJD_49W9dKm-2" value="" style="endArrow=classic;html=1;rounded=1;labelBackgroundColor=none;fontColor=default;" edge="1" parent="WIyWlLk6GJQsqaUBKTNV-1" source="-Fd0-h6PGbJD_49W9dKm-4">
          <mxGeometry width="50" height="50" relative="1" as="geometry">
            <mxPoint x="410" y="540" as="sourcePoint" />
            <mxPoint x="180" y="600" as="targetPoint" />
          </mxGeometry>
        </mxCell>
        <mxCell id="-Fd0-h6PGbJD_49W9dKm-3" value="" style="endArrow=classic;html=1;rounded=1;labelBackgroundColor=none;fontColor=default;" edge="1" parent="WIyWlLk6GJQsqaUBKTNV-1">
          <mxGeometry width="50" height="50" relative="1" as="geometry">
            <mxPoint x="410" y="540" as="sourcePoint" />
            <mxPoint x="650" y="600" as="targetPoint" />
          </mxGeometry>
        </mxCell>
        <mxCell id="-Fd0-h6PGbJD_49W9dKm-4" value="ricevizone inzio sparo" style="rounded=1;whiteSpace=wrap;html=1;labelBackgroundColor=none;" vertex="1" parent="WIyWlLk6GJQsqaUBKTNV-1">
          <mxGeometry x="240" y="540" width="120" height="60" as="geometry" />
        </mxCell>
        <mxCell id="-Fd0-h6PGbJD_49W9dKm-6" value="ricevizone inzio sparo" style="rounded=1;whiteSpace=wrap;html=1;labelBackgroundColor=none;" vertex="1" parent="WIyWlLk6GJQsqaUBKTNV-1">
          <mxGeometry x="480" y="540" width="120" height="60" as="geometry" />
        </mxCell>
        <mxCell id="-Fd0-h6PGbJD_49W9dKm-7" value="" style="endArrow=none;html=1;rounded=1;fontSize=12;startSize=8;endSize=8;curved=1;exitX=1;exitY=0.25;exitDx=0;exitDy=0;labelBackgroundColor=none;fontColor=default;" edge="1" parent="WIyWlLk6GJQsqaUBKTNV-1" source="-Fd0-h6PGbJD_49W9dKm-4">
          <mxGeometry width="50" height="50" relative="1" as="geometry">
            <mxPoint x="540" y="800" as="sourcePoint" />
            <mxPoint x="410" y="540" as="targetPoint" />
          </mxGeometry>
        </mxCell>
        <mxCell id="-Fd0-h6PGbJD_49W9dKm-8" value="" style="endArrow=none;dashed=1;html=1;dashPattern=1 3;strokeWidth=2;rounded=1;fontSize=12;startSize=8;endSize=8;curved=1;labelBackgroundColor=none;fontColor=default;" edge="1" parent="WIyWlLk6GJQsqaUBKTNV-1" source="-Fd0-h6PGbJD_49W9dKm-9">
          <mxGeometry width="50" height="50" relative="1" as="geometry">
            <mxPoint x="60" y="640" as="sourcePoint" />
            <mxPoint x="770" y="640" as="targetPoint" />
          </mxGeometry>
        </mxCell>
        <mxCell id="-Fd0-h6PGbJD_49W9dKm-10" value="v" style="endArrow=none;dashed=1;html=1;dashPattern=1 3;strokeWidth=2;rounded=1;fontSize=12;startSize=8;endSize=8;curved=1;labelBackgroundColor=none;fontColor=default;" edge="1" parent="WIyWlLk6GJQsqaUBKTNV-1">
          <mxGeometry width="50" height="50" relative="1" as="geometry">
            <mxPoint x="60" y="642.86" as="sourcePoint" />
            <mxPoint x="360" y="647.1457142857142" as="targetPoint" />
          </mxGeometry>
        </mxCell>
        <mxCell id="-Fd0-h6PGbJD_49W9dKm-9" value="loop" style="rounded=1;whiteSpace=wrap;html=1;labelBackgroundColor=none;" vertex="1" parent="WIyWlLk6GJQsqaUBKTNV-1">
          <mxGeometry x="360" y="630" width="100" height="30" as="geometry" />
        </mxCell>
        <mxCell id="-Fd0-h6PGbJD_49W9dKm-11" value="" style="endArrow=classic;html=1;rounded=1;fontSize=12;startSize=8;endSize=8;curved=1;labelBackgroundColor=none;fontColor=default;" edge="1" parent="WIyWlLk6GJQsqaUBKTNV-1">
          <mxGeometry width="50" height="50" relative="1" as="geometry">
            <mxPoint x="180" y="670" as="sourcePoint" />
            <mxPoint x="420" y="720" as="targetPoint" />
          </mxGeometry>
        </mxCell>
        <mxCell id="-Fd0-h6PGbJD_49W9dKm-12" value="coordinata" style="rounded=1;whiteSpace=wrap;html=1;labelBackgroundColor=none;" vertex="1" parent="WIyWlLk6GJQsqaUBKTNV-1">
          <mxGeometry x="230" y="670" width="120" height="60" as="geometry" />
        </mxCell>
        <mxCell id="-Fd0-h6PGbJD_49W9dKm-14" value="" style="endArrow=classic;html=1;rounded=1;labelBackgroundColor=none;fontColor=default;" edge="1" parent="WIyWlLk6GJQsqaUBKTNV-1">
          <mxGeometry width="50" height="50" relative="1" as="geometry">
            <mxPoint x="650" y="710" as="sourcePoint" />
            <mxPoint x="410" y="760" as="targetPoint" />
          </mxGeometry>
        </mxCell>
        <mxCell id="-Fd0-h6PGbJD_49W9dKm-15" value="coordinata" style="rounded=1;whiteSpace=wrap;html=1;labelBackgroundColor=none;" vertex="1" parent="WIyWlLk6GJQsqaUBKTNV-1">
          <mxGeometry x="480" y="700" width="120" height="60" as="geometry" />
        </mxCell>
        <mxCell id="-Fd0-h6PGbJD_49W9dKm-18" value="" style="endArrow=classic;html=1;rounded=1;fontSize=12;startSize=8;endSize=8;curved=1;labelBackgroundColor=none;fontColor=default;" edge="1" parent="WIyWlLk6GJQsqaUBKTNV-1">
          <mxGeometry width="50" height="50" relative="1" as="geometry">
            <mxPoint x="410" y="810" as="sourcePoint" />
            <mxPoint x="650" y="850" as="targetPoint" />
          </mxGeometry>
        </mxCell>
        <mxCell id="-Fd0-h6PGbJD_49W9dKm-19" value="" style="endArrow=classic;html=1;rounded=1;fontSize=12;startSize=8;endSize=8;curved=1;labelBackgroundColor=none;fontColor=default;" edge="1" parent="WIyWlLk6GJQsqaUBKTNV-1" source="-Fd0-h6PGbJD_49W9dKm-23">
          <mxGeometry width="50" height="50" relative="1" as="geometry">
            <mxPoint x="410" y="810" as="sourcePoint" />
            <mxPoint x="180" y="850" as="targetPoint" />
          </mxGeometry>
        </mxCell>
        <mxCell id="-Fd0-h6PGbJD_49W9dKm-20" value="" style="endArrow=classic;html=1;rounded=1;fontSize=12;startSize=8;endSize=8;curved=1;labelBackgroundColor=none;fontColor=default;" edge="1" parent="WIyWlLk6GJQsqaUBKTNV-1" source="-Fd0-h6PGbJD_49W9dKm-27">
          <mxGeometry width="50" height="50" relative="1" as="geometry">
            <mxPoint x="415" y="890" as="sourcePoint" />
            <mxPoint x="185" y="930" as="targetPoint" />
          </mxGeometry>
        </mxCell>
        <mxCell id="-Fd0-h6PGbJD_49W9dKm-21" value="" style="endArrow=classic;html=1;rounded=1;fontSize=12;startSize=8;endSize=8;curved=1;labelBackgroundColor=none;fontColor=default;" edge="1" parent="WIyWlLk6GJQsqaUBKTNV-1">
          <mxGeometry width="50" height="50" relative="1" as="geometry">
            <mxPoint x="410" y="890" as="sourcePoint" />
            <mxPoint x="650" y="930" as="targetPoint" />
          </mxGeometry>
        </mxCell>
        <mxCell id="-Fd0-h6PGbJD_49W9dKm-24" value="" style="endArrow=classic;html=1;rounded=1;fontSize=12;startSize=8;endSize=8;curved=1;labelBackgroundColor=none;fontColor=default;" edge="1" parent="WIyWlLk6GJQsqaUBKTNV-1" target="-Fd0-h6PGbJD_49W9dKm-23">
          <mxGeometry width="50" height="50" relative="1" as="geometry">
            <mxPoint x="410" y="810" as="sourcePoint" />
            <mxPoint x="180" y="850" as="targetPoint" />
          </mxGeometry>
        </mxCell>
        <mxCell id="-Fd0-h6PGbJD_49W9dKm-23" value="coordinate avversarie" style="rounded=1;whiteSpace=wrap;html=1;labelBackgroundColor=none;" vertex="1" parent="WIyWlLk6GJQsqaUBKTNV-1">
          <mxGeometry x="240" y="800" width="120" height="60" as="geometry" />
        </mxCell>
        <mxCell id="-Fd0-h6PGbJD_49W9dKm-25" value="coordinate avversarie" style="rounded=1;whiteSpace=wrap;html=1;labelBackgroundColor=none;" vertex="1" parent="WIyWlLk6GJQsqaUBKTNV-1">
          <mxGeometry x="473.5" y="790" width="120" height="60" as="geometry" />
        </mxCell>
        <mxCell id="-Fd0-h6PGbJD_49W9dKm-26" value="fine (vinto - perso) o continuo partita" style="rounded=1;whiteSpace=wrap;html=1;labelBackgroundColor=none;" vertex="1" parent="WIyWlLk6GJQsqaUBKTNV-1">
          <mxGeometry x="470" y="880" width="120" height="60" as="geometry" />
        </mxCell>
        <mxCell id="-Fd0-h6PGbJD_49W9dKm-28" value="" style="endArrow=classic;html=1;rounded=1;fontSize=12;startSize=8;endSize=8;curved=1;labelBackgroundColor=none;fontColor=default;" edge="1" parent="WIyWlLk6GJQsqaUBKTNV-1" target="-Fd0-h6PGbJD_49W9dKm-27">
          <mxGeometry width="50" height="50" relative="1" as="geometry">
            <mxPoint x="415" y="890" as="sourcePoint" />
            <mxPoint x="185" y="930" as="targetPoint" />
          </mxGeometry>
        </mxCell>
        <mxCell id="-Fd0-h6PGbJD_49W9dKm-27" value="fine (vinto - perso) o continuo partita" style="rounded=1;whiteSpace=wrap;html=1;labelBackgroundColor=none;" vertex="1" parent="WIyWlLk6GJQsqaUBKTNV-1">
          <mxGeometry x="240" y="880" width="120" height="60" as="geometry" />
        </mxCell>
      </root>
    </mxGraphModel>
  </diagram>
</mxfile>
